<mxfile host="app.diagrams.net" modified="2021-07-19T15:31:28.634Z" agent="5.0 (Windows NT 10.0; Win64; x64) AppleWebKit/537.36 (KHTML, like Gecko) Chrome/91.0.4472.124 Safari/537.36" etag="GVis_jG7BYLBQ-N6n4_o" version="14.9.0" type="github">
  <diagram name="Page-1" id="74e2e168-ea6b-b213-b513-2b3c1d86103e">
    <mxGraphModel dx="868" dy="393" grid="0" gridSize="10" guides="1" tooltips="1" connect="1" arrows="1" fold="1" page="1" pageScale="1" pageWidth="1100" pageHeight="850" background="none" math="0" shadow="0">
      <root>
        <mxCell id="0" />
        <mxCell id="1" parent="0" />
        <mxCell id="77e6c97f196da883-1" value="PRODUCTO NACIONAL - CODIFICACION" style="swimlane;html=1;childLayout=stackLayout;startSize=20;rounded=0;shadow=0;labelBackgroundColor=none;strokeWidth=1;fontFamily=Verdana;fontSize=8;align=center;" parent="1" vertex="1">
          <mxGeometry x="50" y="40" width="1036" height="550" as="geometry" />
        </mxCell>
        <mxCell id="77e6c97f196da883-2" value="Gerencia Negocio" style="swimlane;html=1;startSize=20;" parent="77e6c97f196da883-1" vertex="1">
          <mxGeometry y="20" width="160" height="530" as="geometry">
            <mxRectangle y="20" width="30" height="730" as="alternateBounds" />
          </mxGeometry>
        </mxCell>
        <mxCell id="77e6c97f196da883-8" value="Seleccionar productos&lt;br style=&quot;font-size: 9px;&quot;&gt;Definir CLACOM" style="rounded=1;whiteSpace=wrap;html=1;shadow=0;labelBackgroundColor=none;strokeWidth=1;fontFamily=Verdana;fontSize=9;align=left;" parent="77e6c97f196da883-2" vertex="1">
          <mxGeometry x="20" y="65" width="112" height="60" as="geometry" />
        </mxCell>
        <mxCell id="UPMh9I5Tj9LvmsIc24ZZ-47" value="" style="edgeStyle=orthogonalEdgeStyle;rounded=0;orthogonalLoop=1;jettySize=auto;html=1;fontColor=#004C99;strokeColor=#000099;strokeWidth=3;" edge="1" parent="77e6c97f196da883-2" source="77e6c97f196da883-10" target="UPMh9I5Tj9LvmsIc24ZZ-46">
          <mxGeometry relative="1" as="geometry" />
        </mxCell>
        <mxCell id="77e6c97f196da883-10" value="Enriquecer atributos comerciales&lt;br&gt;Definir siembra" style="rounded=1;whiteSpace=wrap;html=1;shadow=0;labelBackgroundColor=none;strokeWidth=1;fontFamily=Verdana;fontSize=9;align=left;" parent="77e6c97f196da883-2" vertex="1">
          <mxGeometry x="20" y="335" width="100" height="60" as="geometry" />
        </mxCell>
        <mxCell id="UPMh9I5Tj9LvmsIc24ZZ-46" value="Aprobado?" style="rhombus;whiteSpace=wrap;html=1;rounded=0;shadow=0;labelBackgroundColor=none;strokeWidth=1;fontFamily=Verdana;fontSize=9;align=center;" vertex="1" parent="77e6c97f196da883-2">
          <mxGeometry x="30" y="420" width="80" height="60" as="geometry" />
        </mxCell>
        <mxCell id="UPMh9I5Tj9LvmsIc24ZZ-48" value="Sí" style="text;html=1;strokeColor=none;fillColor=none;align=center;verticalAlign=middle;whiteSpace=wrap;rounded=0;fontColor=#006600;" vertex="1" parent="77e6c97f196da883-2">
          <mxGeometry x="40" y="480" width="40" height="20" as="geometry" />
        </mxCell>
        <mxCell id="UPMh9I5Tj9LvmsIc24ZZ-49" value="No" style="text;html=1;strokeColor=none;fillColor=none;align=center;verticalAlign=middle;whiteSpace=wrap;rounded=0;fontColor=#FF0000;" vertex="1" parent="77e6c97f196da883-2">
          <mxGeometry x="110" y="430" width="40" height="20" as="geometry" />
        </mxCell>
        <mxCell id="77e6c97f196da883-26" style="edgeStyle=orthogonalEdgeStyle;rounded=1;html=1;labelBackgroundColor=none;startArrow=none;startFill=0;startSize=5;endArrow=classicThin;endFill=1;endSize=5;jettySize=auto;orthogonalLoop=1;strokeWidth=3;fontFamily=Verdana;fontSize=8;labelBorderColor=none;fontColor=#004C99;strokeColor=#000099;" parent="77e6c97f196da883-1" source="77e6c97f196da883-8" target="77e6c97f196da883-11" edge="1">
          <mxGeometry relative="1" as="geometry" />
        </mxCell>
        <mxCell id="77e6c97f196da883-28" style="edgeStyle=orthogonalEdgeStyle;rounded=1;html=1;labelBackgroundColor=none;startArrow=none;startFill=0;startSize=5;endArrow=classicThin;endFill=1;endSize=5;jettySize=auto;orthogonalLoop=1;strokeWidth=3;fontFamily=Verdana;fontSize=8;exitX=1;exitY=0.5;exitDx=0;exitDy=0;strokeColor=#000099;" parent="77e6c97f196da883-1" source="77e6c97f196da883-11" target="77e6c97f196da883-12" edge="1">
          <mxGeometry relative="1" as="geometry">
            <mxPoint x="120" y="205" as="sourcePoint" />
          </mxGeometry>
        </mxCell>
        <mxCell id="77e6c97f196da883-30" style="edgeStyle=orthogonalEdgeStyle;rounded=1;html=1;labelBackgroundColor=none;startArrow=none;startFill=0;startSize=5;endArrow=classicThin;endFill=1;endSize=5;jettySize=auto;orthogonalLoop=1;strokeWidth=2;fontFamily=Verdana;fontSize=8;entryX=0.5;entryY=1;entryDx=0;entryDy=0;strokeColor=#CC0000;" parent="77e6c97f196da883-1" source="77e6c97f196da883-13" target="77e6c97f196da883-11" edge="1">
          <mxGeometry relative="1" as="geometry">
            <mxPoint x="70" y="235" as="targetPoint" />
          </mxGeometry>
        </mxCell>
        <mxCell id="77e6c97f196da883-33" style="edgeStyle=orthogonalEdgeStyle;rounded=1;html=1;labelBackgroundColor=none;startArrow=none;startFill=0;startSize=5;endArrow=classicThin;endFill=1;endSize=5;jettySize=auto;orthogonalLoop=1;strokeWidth=3;fontFamily=Verdana;fontSize=8;exitX=0.5;exitY=1;exitDx=0;exitDy=0;strokeColor=#000099;" parent="77e6c97f196da883-1" source="77e6c97f196da883-13" edge="1">
          <mxGeometry relative="1" as="geometry">
            <mxPoint x="400" y="280" as="targetPoint" />
          </mxGeometry>
        </mxCell>
        <mxCell id="77e6c97f196da883-3" value="Proveedor" style="swimlane;html=1;startSize=20;" parent="77e6c97f196da883-1" vertex="1">
          <mxGeometry x="160" y="20" width="160" height="530" as="geometry" />
        </mxCell>
        <mxCell id="77e6c97f196da883-11" value="Descargar SmartSheet&lt;br style=&quot;font-size: 9px;&quot;&gt;Diligenciar SmarSheet&lt;br style=&quot;font-size: 9px;&quot;&gt;Cargar Productos&lt;br style=&quot;font-size: 9px;&quot;&gt;Subir Fotos&lt;br style=&quot;font-size: 9px;&quot;&gt;Subir documentos" style="rounded=1;whiteSpace=wrap;html=1;shadow=0;labelBackgroundColor=none;strokeWidth=1;fontFamily=Verdana;fontSize=9;align=left;" parent="77e6c97f196da883-3" vertex="1">
          <mxGeometry x="19" y="65" width="127" height="60" as="geometry" />
        </mxCell>
        <mxCell id="77e6c97f196da883-4" value="UAM" style="swimlane;html=1;startSize=20;flipH=0;flipV=0;" parent="77e6c97f196da883-1" vertex="1">
          <mxGeometry x="320" y="20" width="160" height="530" as="geometry" />
        </mxCell>
        <mxCell id="77e6c97f196da883-12" value="&lt;div style=&quot;text-align: left; font-size: 10px;&quot;&gt;&lt;span style=&quot;font-size: 10px;&quot;&gt;Revisar atributos&lt;/span&gt;&lt;/div&gt;&lt;div style=&quot;text-align: left; font-size: 10px;&quot;&gt;&lt;span style=&quot;font-size: 10px;&quot;&gt;Revisar docs QC&lt;/span&gt;&lt;/div&gt;&lt;div style=&quot;text-align: left; font-size: 10px;&quot;&gt;&lt;span style=&quot;font-size: 10px;&quot;&gt;Revisar fotos&lt;/span&gt;&lt;/div&gt;" style="rounded=1;whiteSpace=wrap;html=1;shadow=0;labelBackgroundColor=none;strokeWidth=1;fontFamily=Verdana;fontSize=10;align=center;opacity=30;" parent="77e6c97f196da883-4" vertex="1">
          <mxGeometry x="30" y="65" width="100" height="60" as="geometry" />
        </mxCell>
        <mxCell id="77e6c97f196da883-13" value="Completo?" style="rhombus;whiteSpace=wrap;html=1;rounded=0;shadow=0;labelBackgroundColor=none;strokeWidth=1;fontFamily=Verdana;fontSize=9;align=center;" parent="77e6c97f196da883-4" vertex="1">
          <mxGeometry x="40" y="160" width="80" height="60" as="geometry" />
        </mxCell>
        <mxCell id="77e6c97f196da883-29" style="edgeStyle=orthogonalEdgeStyle;rounded=1;html=1;labelBackgroundColor=none;startArrow=none;startFill=0;startSize=5;endArrow=classicThin;endFill=1;endSize=5;jettySize=auto;orthogonalLoop=1;strokeWidth=3;fontFamily=Verdana;fontSize=8;strokeColor=#000099;" parent="77e6c97f196da883-4" source="77e6c97f196da883-12" target="77e6c97f196da883-13" edge="1">
          <mxGeometry relative="1" as="geometry" />
        </mxCell>
        <mxCell id="UPMh9I5Tj9LvmsIc24ZZ-12" value="No" style="text;html=1;strokeColor=none;fillColor=none;align=center;verticalAlign=middle;whiteSpace=wrap;rounded=0;fontColor=#FF0000;" vertex="1" parent="77e6c97f196da883-4">
          <mxGeometry y="170" width="40" height="20" as="geometry" />
        </mxCell>
        <mxCell id="UPMh9I5Tj9LvmsIc24ZZ-11" value="Sí" style="text;html=1;strokeColor=none;fillColor=none;align=center;verticalAlign=middle;whiteSpace=wrap;rounded=0;fontColor=#006600;" vertex="1" parent="77e6c97f196da883-4">
          <mxGeometry x="50" y="220" width="40" height="20" as="geometry" />
        </mxCell>
        <mxCell id="UPMh9I5Tj9LvmsIc24ZZ-24" value="Escalar a QC?" style="rhombus;whiteSpace=wrap;html=1;rounded=0;shadow=0;labelBackgroundColor=none;strokeWidth=1;fontFamily=Verdana;fontSize=9;align=center;" vertex="1" parent="77e6c97f196da883-4">
          <mxGeometry x="40" y="260" width="80" height="60" as="geometry" />
        </mxCell>
        <mxCell id="UPMh9I5Tj9LvmsIc24ZZ-37" value="No" style="text;html=1;strokeColor=none;fillColor=none;align=center;verticalAlign=middle;whiteSpace=wrap;rounded=0;fontColor=#FF0000;" vertex="1" parent="77e6c97f196da883-4">
          <mxGeometry y="270" width="40" height="20" as="geometry" />
        </mxCell>
        <mxCell id="77e6c97f196da883-5" value="Calidad" style="swimlane;html=1;startSize=20;swimlaneLine=1;shadow=0;" parent="77e6c97f196da883-1" vertex="1">
          <mxGeometry x="480" y="20" width="160" height="530" as="geometry" />
        </mxCell>
        <mxCell id="77e6c97f196da883-15" value="Aprobar / Rechazar" style="rounded=1;whiteSpace=wrap;html=1;shadow=0;labelBackgroundColor=none;strokeWidth=1;fontFamily=Verdana;fontSize=9;align=center;" parent="77e6c97f196da883-5" vertex="1">
          <mxGeometry x="30" y="160" width="100" height="60" as="geometry" />
        </mxCell>
        <mxCell id="77e6c97f196da883-16" value="Aprobado?" style="rhombus;whiteSpace=wrap;html=1;rounded=0;shadow=0;labelBackgroundColor=none;strokeWidth=1;fontFamily=Verdana;fontSize=9;align=center;" parent="77e6c97f196da883-5" vertex="1">
          <mxGeometry x="40" y="250" width="80" height="60" as="geometry" />
        </mxCell>
        <mxCell id="77e6c97f196da883-34" style="edgeStyle=orthogonalEdgeStyle;rounded=1;html=1;labelBackgroundColor=none;startArrow=none;startFill=0;startSize=5;endArrow=classicThin;endFill=1;endSize=5;jettySize=auto;orthogonalLoop=1;strokeColor=#000000;strokeWidth=1;fontFamily=Verdana;fontSize=8;fontColor=#000000;" parent="77e6c97f196da883-5" source="77e6c97f196da883-15" target="77e6c97f196da883-16" edge="1">
          <mxGeometry relative="1" as="geometry" />
        </mxCell>
        <mxCell id="UPMh9I5Tj9LvmsIc24ZZ-13" value="&lt;font color=&quot;#ff0000&quot;&gt;No&lt;/font&gt;" style="text;html=1;strokeColor=none;fillColor=none;align=center;verticalAlign=middle;whiteSpace=wrap;rounded=0;fontColor=#000000;" vertex="1" parent="77e6c97f196da883-5">
          <mxGeometry y="260" width="40" height="20" as="geometry" />
        </mxCell>
        <mxCell id="UPMh9I5Tj9LvmsIc24ZZ-21" value="Sí" style="text;html=1;strokeColor=none;fillColor=none;align=center;verticalAlign=middle;whiteSpace=wrap;rounded=0;fontColor=#006600;" vertex="1" parent="77e6c97f196da883-5">
          <mxGeometry x="70" y="310" width="40" height="20" as="geometry" />
        </mxCell>
        <mxCell id="77e6c97f196da883-6" value="ODBMS" style="swimlane;html=1;startSize=20;" parent="77e6c97f196da883-1" vertex="1">
          <mxGeometry x="640" y="20" width="116" height="530" as="geometry" />
        </mxCell>
        <mxCell id="77e6c97f196da883-18" value="Generar SKU" style="rounded=1;whiteSpace=wrap;html=1;shadow=0;labelBackgroundColor=none;strokeWidth=1;fontFamily=Verdana;fontSize=9;align=left;" parent="77e6c97f196da883-6" vertex="1">
          <mxGeometry x="30" y="460" width="63" height="60" as="geometry" />
        </mxCell>
        <mxCell id="77e6c97f196da883-7" value="Fotografia" style="swimlane;html=1;startSize=20;" parent="77e6c97f196da883-1" vertex="1">
          <mxGeometry x="756" y="20" width="120" height="530" as="geometry" />
        </mxCell>
        <mxCell id="UPMh9I5Tj9LvmsIc24ZZ-41" value="Aprobar fotos" style="rounded=1;whiteSpace=wrap;html=1;shadow=0;fontFamily=Verdana;fontSize=9;align=left;strokeWidth=1;" vertex="1" parent="77e6c97f196da883-7">
          <mxGeometry x="33" y="460" width="75" height="60" as="geometry" />
        </mxCell>
        <mxCell id="77e6c97f196da883-35" style="edgeStyle=orthogonalEdgeStyle;rounded=1;html=1;labelBackgroundColor=none;startArrow=none;startFill=0;startSize=5;endArrow=classicThin;endFill=1;endSize=5;jettySize=auto;orthogonalLoop=1;strokeWidth=2;fontFamily=Verdana;fontSize=8;entryX=1;entryY=0.5;entryDx=0;entryDy=0;strokeColor=#006600;" parent="77e6c97f196da883-1" source="77e6c97f196da883-16" target="77e6c97f196da883-10" edge="1">
          <mxGeometry relative="1" as="geometry">
            <Array as="points">
              <mxPoint x="560" y="385" />
            </Array>
          </mxGeometry>
        </mxCell>
        <mxCell id="UPMh9I5Tj9LvmsIc24ZZ-25" style="edgeStyle=orthogonalEdgeStyle;rounded=0;orthogonalLoop=1;jettySize=auto;html=1;exitX=1;exitY=0.5;exitDx=0;exitDy=0;entryX=0;entryY=0.5;entryDx=0;entryDy=0;fontColor=#006600;" edge="1" parent="77e6c97f196da883-1" source="UPMh9I5Tj9LvmsIc24ZZ-24" target="77e6c97f196da883-15">
          <mxGeometry relative="1" as="geometry">
            <Array as="points">
              <mxPoint x="470" y="310" />
              <mxPoint x="470" y="210" />
            </Array>
          </mxGeometry>
        </mxCell>
        <mxCell id="UPMh9I5Tj9LvmsIc24ZZ-36" style="edgeStyle=orthogonalEdgeStyle;rounded=0;orthogonalLoop=1;jettySize=auto;html=1;entryX=0.5;entryY=0;entryDx=0;entryDy=0;fontColor=#006600;strokeWidth=3;strokeColor=#000099;" edge="1" parent="77e6c97f196da883-1" source="UPMh9I5Tj9LvmsIc24ZZ-24" target="77e6c97f196da883-10">
          <mxGeometry relative="1" as="geometry" />
        </mxCell>
        <mxCell id="UPMh9I5Tj9LvmsIc24ZZ-38" style="edgeStyle=orthogonalEdgeStyle;rounded=0;orthogonalLoop=1;jettySize=auto;html=1;exitX=0.5;exitY=1;exitDx=0;exitDy=0;fontColor=#004C99;strokeColor=#000099;strokeWidth=3;entryX=0;entryY=0.5;entryDx=0;entryDy=0;" edge="1" parent="77e6c97f196da883-1" source="UPMh9I5Tj9LvmsIc24ZZ-46" target="77e6c97f196da883-18">
          <mxGeometry relative="1" as="geometry">
            <mxPoint x="660" y="450" as="targetPoint" />
            <Array as="points">
              <mxPoint x="70" y="510" />
            </Array>
          </mxGeometry>
        </mxCell>
        <mxCell id="UPMh9I5Tj9LvmsIc24ZZ-42" value="" style="edgeStyle=orthogonalEdgeStyle;rounded=0;orthogonalLoop=1;jettySize=auto;html=1;fontColor=#004C99;strokeColor=#000099;strokeWidth=3;" edge="1" parent="77e6c97f196da883-1" source="77e6c97f196da883-18" target="UPMh9I5Tj9LvmsIc24ZZ-41">
          <mxGeometry relative="1" as="geometry" />
        </mxCell>
        <mxCell id="UPMh9I5Tj9LvmsIc24ZZ-40" value="Catalogo" style="swimlane;html=1;startSize=20;" vertex="1" parent="77e6c97f196da883-1">
          <mxGeometry x="876" y="20" width="160" height="530" as="geometry" />
        </mxCell>
        <mxCell id="UPMh9I5Tj9LvmsIc24ZZ-53" value="Descargar reporte BCC&lt;br style=&quot;font-size: 9px;&quot;&gt;Transformar para BCC&lt;br style=&quot;font-size: 9px;&quot;&gt;Cargar datos BCC" style="rounded=1;whiteSpace=wrap;html=1;shadow=0;fontFamily=Verdana;fontSize=9;align=left;strokeWidth=1;" vertex="1" parent="UPMh9I5Tj9LvmsIc24ZZ-40">
          <mxGeometry x="19" y="460" width="122" height="60" as="geometry" />
        </mxCell>
        <mxCell id="UPMh9I5Tj9LvmsIc24ZZ-56" style="edgeStyle=orthogonalEdgeStyle;rounded=0;orthogonalLoop=1;jettySize=auto;html=1;entryX=0.5;entryY=0;entryDx=0;entryDy=0;fontSize=9;fontColor=#000000;strokeColor=#000099;strokeWidth=3;" edge="1" parent="77e6c97f196da883-1" source="77e6c97f196da883-18" target="UPMh9I5Tj9LvmsIc24ZZ-53">
          <mxGeometry relative="1" as="geometry">
            <Array as="points">
              <mxPoint x="702" y="460" />
              <mxPoint x="956" y="460" />
            </Array>
          </mxGeometry>
        </mxCell>
        <mxCell id="UPMh9I5Tj9LvmsIc24ZZ-57" style="edgeStyle=orthogonalEdgeStyle;rounded=0;orthogonalLoop=1;jettySize=auto;html=1;exitX=1;exitY=0.5;exitDx=0;exitDy=0;entryX=0.25;entryY=1;entryDx=0;entryDy=0;fontSize=9;fontColor=#000000;strokeWidth=2;strokeColor=#CC0000;" edge="1" parent="77e6c97f196da883-1" source="UPMh9I5Tj9LvmsIc24ZZ-46" target="77e6c97f196da883-11">
          <mxGeometry relative="1" as="geometry" />
        </mxCell>
        <mxCell id="UPMh9I5Tj9LvmsIc24ZZ-58" style="edgeStyle=orthogonalEdgeStyle;rounded=0;orthogonalLoop=1;jettySize=auto;html=1;exitX=1;exitY=1;exitDx=0;exitDy=0;entryX=0.37;entryY=0.983;entryDx=0;entryDy=0;entryPerimeter=0;fontSize=9;fontColor=#000000;strokeColor=#CC0000;strokeWidth=2;" edge="1" parent="77e6c97f196da883-1" source="UPMh9I5Tj9LvmsIc24ZZ-13" target="77e6c97f196da883-11">
          <mxGeometry relative="1" as="geometry">
            <Array as="points">
              <mxPoint x="490" y="300" />
              <mxPoint x="490" y="262" />
              <mxPoint x="226" y="262" />
            </Array>
          </mxGeometry>
        </mxCell>
        <mxCell id="UPMh9I5Tj9LvmsIc24ZZ-34" value="Sí" style="text;html=1;strokeColor=none;fillColor=none;align=center;verticalAlign=middle;whiteSpace=wrap;rounded=0;fontColor=#006600;" vertex="1" parent="1">
          <mxGeometry x="480" y="330" width="40" height="20" as="geometry" />
        </mxCell>
        <mxCell id="UPMh9I5Tj9LvmsIc24ZZ-55" style="edgeStyle=orthogonalEdgeStyle;rounded=0;orthogonalLoop=1;jettySize=auto;html=1;exitX=0.5;exitY=0;exitDx=0;exitDy=0;fontSize=9;fontColor=#000000;strokeColor=#000099;strokeWidth=3;" edge="1" parent="1" source="UPMh9I5Tj9LvmsIc24ZZ-53">
          <mxGeometry relative="1" as="geometry">
            <mxPoint x="1006" y="520" as="targetPoint" />
          </mxGeometry>
        </mxCell>
      </root>
    </mxGraphModel>
  </diagram>
</mxfile>
